<?xml version="1.0" encoding="UTF-8"?>
<svg id="a" data-name="favicon" xmlns="http://www.w3.org/2000/svg" viewBox="0 0 343.14 184.94">
  <defs>
    <style>
      .b {
        stroke: #000;
        stroke-miterlimit: 10;
      }
    </style>
  </defs>
  <rect class="b" x=".5" y=".5" width="301.05" height="18.64" rx="7.31" ry="7.31"/>
  <path class="b" d="M50.91,42.95h282.4c5.15,0,9.33,4.17,9.33,9.32h0c0,5.15-4.18,9.32-9.33,9.32H50.91c-5.15,0-9.33-4.17-9.33-9.32h0c0-5.15,4.18-9.32,9.33-9.32Z"/>
  <path class="b" d="M9.83,83.02h282.4c5.15,0,9.33,4.17,9.33,9.32h0c0,5.15-4.18,9.32-9.33,9.32H9.83c-5.15,0-9.33-4.17-9.33-9.32h0c0-5.15,4.18-9.32,9.33-9.32Z"/>
  <path class="b" d="M9.83,125.72h282.4c5.15,0,9.33,4.17,9.33,9.32h0c0,5.15-4.18,9.32-9.33,9.32H9.83c-5.15,0-9.33-4.17-9.33-9.32h0c0-5.15,4.18-9.32,9.33-9.32Z"/>
  <path class="b" d="M50.91,165.8h282.4c5.15,0,9.33,4.17,9.33,9.32h0c0,5.15-4.18,9.32-9.33,9.32H50.91c-5.15,0-9.33-4.17-9.33-9.32h0c0-5.15,4.18-9.32,9.33-9.32h0Z"/>
</svg>